<svg xmlns="http://www.w3.org/2000/svg" viewBox="0 0 48 48" width="48" height="48">
  <path fill="#25F4EE" d="M44,7.87c-3.72,1.62-7.216,2.85-10.52,3.22c0.5-.57,1.45-1.9,2.04-3.2c1.37-2.98.3-6.35-2.46-7.92 c-1.61-.9-3.61-.82-5.23.22c-2.75,1.8-4.12,5.17-3.44,8.83c-5.05-.36-9.75-1.6-14.1-3.92c-1.08-.57-2.62-.38-3.54.47 C4.57,7.21,4,8.66,4,10.15v3.03c0,5.42,2.67,10.2,6.44,13.09c-.3.3-.73,1.05-1.01,1.57c-.4.74-.48,1.45-.3,2.04 c1.26,4.04,5.96,6.29,10.15,5.36c-2.76,2.19-6.43,3.52-10.4,3.52c-.8,0-1.6-.05-2.38-.13c3.89,2.6,8.6,4.13,13.68,4.13 c10.5,0,16.5-9.04,16.5-17.71V10.95c2.38-1.7,4.4-3.8,6.04-6.14c.58-.81.56-1.78-.04-2.55C45.29,1.2,44.79,.4,44,7.87z"/>
</svg>